HIERARCHY
ROOT SpineBase
{
  OFFSET 0.000000 0.000000 0.000000
  CHANNELS 6 Xposition Yposition Zposition Zrotation Xrotation Yrotation
  JOINT SpineMid
  {
    OFFSET 0.000000 31.070113 0.000000
    CHANNELS 3 Zrotation Xrotation Yrotation
    JOINT SpineShoulder
    {
      OFFSET 0.277255 23.102981 -0.744854
      CHANNELS 3 Zrotation Xrotation Yrotation
      JOINT Neck
      {
        OFFSET 0.205163 7.653629 -0.567224
        CHANNELS 3 Zrotation Xrotation Yrotation
        JOINT Head
        {
          OFFSET 3.756284 12.053938 4.024276
          CHANNELS 3 Zrotation Xrotation Yrotation
          End Site
          {
            OFFSET 0 0 0
          }
        }
      }
      JOINT ShoulderLeft
      {
        OFFSET -6.276930 -2.415254 -14.935953
        CHANNELS 3 Zrotation Xrotation Yrotation
        JOINT ElbowLeft
        {
          OFFSET -1.346238 -23.128346 -7.278761
          CHANNELS 3 Zrotation Xrotation Yrotation
          JOINT WristLeft
          {
            OFFSET 6.103150 -20.349631 0.371906
            CHANNELS 3 Zrotation Xrotation Yrotation
            JOINT HandLeft
            {
              OFFSET 2.096324 -7.919898 2.990619
              CHANNELS 3 Zrotation Xrotation Yrotation
              JOINT HandTipLeft
              {
                OFFSET 3.110887 -7.668906 -0.201291
                CHANNELS 3 Zrotation Xrotation Yrotation
                End Site
                {
                  OFFSET 0 0 0
                }
              }
              JOINT ThumbLeft
              {
                OFFSET -3.967118 1.124651 -1.648053
                CHANNELS 3 Zrotation Xrotation Yrotation
                End Site
                {
                  OFFSET 0 0 0
                }
              }
            }
          }
        }
      }
      JOINT ShoulderRight
      {
        OFFSET 8.108090 -4.377874 15.609408
        CHANNELS 3 Zrotation Xrotation Yrotation
        JOINT ElbowRight
        {
          OFFSET 0.348129 -24.790984 5.022583
          CHANNELS 3 Zrotation Xrotation Yrotation
          JOINT WristRight
          {
            OFFSET 3.286838 -20.966940 -11.820400
            CHANNELS 3 Zrotation Xrotation Yrotation
            JOINT HandRight
            {
              OFFSET 1.550644 -6.632355 0.187379
              CHANNELS 3 Zrotation Xrotation Yrotation
              JOINT HandTipRight
              {
                OFFSET -0.374415 -6.521836 -0.347261
                CHANNELS 3 Zrotation Xrotation Yrotation
                End Site
                {
                  OFFSET 0 0 0
                }
              }
              JOINT ThumbRight
              {
                OFFSET -1.486878 1.866739 -9.059717
                CHANNELS 3 Zrotation Xrotation Yrotation
                End Site
                {
                  OFFSET 0 0 0
                }
              }
            }
          }
        }
      }
    }
  }
  JOINT HipLeft
  {
    OFFSET -1.912161 2.360285 -8.950762
    CHANNELS 3 Zrotation Xrotation Yrotation
    JOINT KneeLeft
    {
      OFFSET -8.982232 -34.903184 -3.941382
      CHANNELS 3 Zrotation Xrotation Yrotation
      JOINT AnkleLeft
      {
        OFFSET -7.056405 -35.284683 6.117512
        CHANNELS 3 Zrotation Xrotation Yrotation
        JOINT FootLeft
        {
          OFFSET 10.204508 -3.299273 -7.844032
          CHANNELS 3 Zrotation Xrotation Yrotation
          End Site
          {
            OFFSET 0 0 0
          }
        }
      }
    }
  }
  JOINT HipRight
  {
    OFFSET 4.220510 -0.080163 2.016914
    CHANNELS 3 Zrotation Xrotation Yrotation
    JOINT KneeRight
    {
      OFFSET -2.837208 -36.760196 4.235624
      CHANNELS 3 Zrotation Xrotation Yrotation
      JOINT AnkleRight
      {
        OFFSET -7.265768 -32.417775 3.011450
        CHANNELS 3 Zrotation Xrotation Yrotation
        JOINT FootRight
        {
          OFFSET 10.052366 -3.332357 -7.917657
          CHANNELS 3 Zrotation Xrotation Yrotation
          End Site
          {
            OFFSET 0 0 0
          }
        }
      }
    }
  }
}
MOTION
Frames: 6
Frame Time: 0.033333
-101.688777 75.078816 308.472884 1.603810 -0.621169 -62.390699 0.144967 0.074283 62.464477 0.055679 -0.033596 0.088515 -6.030325 2.738122 0.774290 0.000000 0.000000 0.000000 -0.116813 0.514087 -0.673694 -1.676311 0.219945 0.517251 -1.644846 -3.227316 -1.511533 3.599965 3.296127 1.242601 0.000000 0.000000 0.000000 0.000000 0.000000 0.000000 -1.790553 0.753504 -0.141145 -0.000000 0.000000 0.000000 7.728220 -13.615547 -2.016845 -10.130580 29.815856 3.612540 0.000000 0.000000 0.000000 0.000000 0.000000 0.000000 -0.139169 -0.425111 62.450012 -2.304874 0.405459 -0.169240 1.471980 0.132030 -1.144010 0.000000 0.000000 0.000000 -2.920268 3.892137 62.562171 5.321609 -7.293943 2.274034 -8.559575 3.692885 -2.469391 0.000000 0.000000 0.000000
-101.775026 75.090981 308.568474 1.593503 -0.557763 -62.343278 0.100640 0.097995 62.413809 0.038338 0.000286 0.083852 -6.520127 2.241647 1.043200 0.000000 0.000000 0.000000 -0.222938 0.564786 -0.636621 -1.541154 0.023906 0.483565 -1.026059 -2.034970 -0.940278 3.675508 1.917638 0.671912 0.000000 0.000000 0.000000 0.000000 0.000000 0.000000 -1.763816 0.605608 -0.137639 -0.000000 0.000000 0.000000 8.145988 -11.141696 -1.556460 -11.008282 23.664456 3.222260 0.000000 0.000000 0.000000 0.000000 0.000000 0.000000 -0.015296 -0.437459 62.412673 -2.267891 0.621707 -0.196132 1.406080 -0.032572 -1.141591 0.000000 0.000000 0.000000 -2.852401 3.775713 62.505929 5.518454 -7.118489 2.259863 -8.673994 3.562449 -2.476180 0.000000 0.000000 0.000000
-101.855136 75.102940 308.727410 1.566660 -0.536124 -62.350221 0.061431 0.114899 62.418058 0.020583 0.028816 0.079243 -6.948692 1.805288 1.296671 0.000000 0.000000 0.000000 -0.274917 0.678828 -0.611719 -1.439423 -0.181391 0.461197 -0.414106 -0.906195 -0.398701 2.092282 0.380175 0.111553 0.000000 0.000000 0.000000 0.000000 0.000000 0.000000 -1.716246 0.512599 -0.133257 -0.000000 0.000000 0.000000 8.086206 -7.374645 -0.958160 -8.519286 14.250009 1.638106 0.000000 0.000000 0.000000 0.000000 0.000000 0.000000 -0.011563 -0.419127 62.412992 -2.156495 0.743956 -0.203111 1.299738 -0.209408 -1.201945 0.000000 0.000000 0.000000 -2.853331 3.704960 62.503267 5.767402 -6.928898 2.246987 -8.841455 3.358844 -2.537423 0.000000 0.000000 0.000000
-101.915897 75.123040 308.908084 1.529728 -0.528812 -62.436317 0.021640 0.131359 62.501463 0.005254 0.052861 0.074757 -7.276047 1.372987 1.520127 0.000000 0.000000 0.000000 -0.358964 0.751996 -0.569640 -1.535961 -1.119528 0.179083 0.240260 0.792298 0.240234 2.455736 -0.701428 -0.331143 0.000000 0.000000 0.000000 0.000000 0.000000 0.000000 -1.660362 0.438250 -0.128445 -0.000000 0.000000 0.000000 8.185145 -4.380715 -0.471080 -7.303563 6.720008 0.810527 0.000000 0.000000 0.000000 0.000000 0.000000 0.000000 -0.070560 -0.370080 62.478441 -2.031805 0.821000 -0.200610 1.195314 -0.402621 -1.283900 0.000000 0.000000 0.000000 -2.909832 3.641161 62.575835 6.104051 -6.776003 2.257396 -9.070908 3.153842 -2.624405 0.000000 0.000000 0.000000
-101.984483 75.129395 309.085399 1.486645 -0.503677 -62.506414 -0.000567 0.136353 62.568707 -0.002949 0.062281 0.071085 -7.660012 1.045008 1.738922 0.000000 0.000000 0.000000 -0.454338 0.809298 -0.521809 -1.145196 -0.438021 0.381773 -0.808947 -0.889758 -0.546682 4.089722 0.088487 0.084267 0.000000 0.000000 0.000000 0.000000 0.000000 0.000000 -1.603468 0.381561 -0.123716 -0.000000 0.000000 0.000000 8.019810 -2.165250 -0.125422 -6.191781 1.088357 0.337752 0.000000 0.000000 0.000000 0.000000 0.000000 0.000000 -0.001912 -0.353479 62.555377 -1.936598 1.020176 -0.224125 1.093911 -0.607053 -1.358203 0.000000 0.000000 0.000000 -2.975181 3.614956 62.632556 6.372523 -6.733357 2.285611 -9.250597 3.017126 -2.716344 0.000000 0.000000 0.000000
-102.038493 75.125091 309.253105 1.451395 -0.493548 -62.559078 -0.008710 0.131911 62.619531 -0.005255 0.061278 0.068965 -8.075149 0.842625 1.943279 0.000000 0.000000 0.000000 -0.561906 0.913123 -0.476226 -0.991883 -0.554083 0.339966 -1.279662 -1.317956 -0.845628 5.596378 0.411092 0.244807 0.000000 0.000000 0.000000 0.000000 0.000000 0.000000 -1.558334 0.367165 -0.120332 -0.000000 0.000000 0.000000 7.757665 -0.184289 0.185958 -5.353553 -3.644812 0.005534 0.000000 0.000000 0.000000 0.000000 0.000000 0.000000 0.076628 -0.378521 62.629625 -1.805914 1.268927 -0.260738 0.978923 -0.806660 -1.391880 0.000000 0.000000 0.000000 -3.069794 3.598755 62.671327 6.635677 -6.726448 2.322876 -9.427583 2.913055 -2.769915 0.000000 0.000000 0.000000
